<svg xmlns="http://www.w3.org/2000/svg" xmlns:xlink="http://www.w3.org/1999/xlink" xml:space="preserve" version="1.1" style="shape-rendering:geometricPrecision;text-rendering:geometricPrecision;image-rendering:optimizeQuality;" viewBox="0 0 847 1058.75" x="0px" y="0px" fill-rule="evenodd" clip-rule="evenodd"><defs><style type="text/css">
   
    .fil0 {fill:black}
   
  </style></defs><g><path class="fil0" d="M423 20c223,0 404,180 404,403 0,223 -181,404 -404,404 -223,0 -403,-181 -403,-404 0,-223 180,-403 403,-403zm0 324l114 -114c52,-52 132,27 80,79l-114 114 114 114c52,52 -28,132 -80,80l-114 -114 -114 114c-52,52 -131,-28 -79,-80l114 -114 -114 -114c-52,-52 27,-131 79,-79l114 114z"/></g><text x="0" y="862" fill="#000000" font-size="5px" font-weight="bold" font-family="'Helvetica Neue', Helvetica, Arial-Unicode, Arial, Sans-serif">Created by Imam</text><text x="0" y="867" fill="#000000" font-size="5px" font-weight="bold" font-family="'Helvetica Neue', Helvetica, Arial-Unicode, Arial, Sans-serif">from the Noun Project</text></svg>